<svg width="37" height="37" viewBox="0 0 37 38" fill="none" xmlns="http://www.w3.org/2000/svg">
<g filter="url(#filter0_d_19668_86365)">
<path fill-rule="evenodd" clip-rule="evenodd" d="M18.5 26C24.299 26 29 21.299 29 15.5C29 9.70101 24.299 5 18.5 5C12.701 5 8 9.70101 8 15.5C8 18.0552 8.91269 20.3972 10.4298 22.2177L10.5103 25.1372C10.517 25.3796 10.7318 25.563 10.9722 25.5316L14.2486 25.1037C15.5483 25.6799 16.9867 26 18.5 26Z" fill="#FF0D37"/>
<path d="M17.1587 10.3386C17.1218 9.58503 17.7227 8.95386 18.4772 8.95386C19.2316 8.95386 19.8326 9.58503 19.7957 10.3386L19.4546 17.2959C19.4291 17.8171 18.999 18.2266 18.4772 18.2266C17.9553 18.2266 17.5253 17.8171 17.4997 17.2959L17.1587 10.3386Z" fill="#FBFBFB"/>
<circle cx="18.4772" cy="21.1137" r="1.38636" fill="#FBFBFB"/>
</g>
<defs>
<filter id="filter0_d_19668_86365" x="0.222223" y="0.722223" width="36.5556" height="36.5556" filterUnits="userSpaceOnUse" color-interpolation-filters="sRGB">
<feFlood flood-opacity="0" result="BackgroundImageFix"/>
<feColorMatrix in="SourceAlpha" type="matrix" values="0 0 0 0 0 0 0 0 0 0 0 0 0 0 0 0 0 0 127 0" result="hardAlpha"/>
<feOffset dy="3.5"/>
<feGaussianBlur stdDeviation="3.88889"/>
<feComposite in2="hardAlpha" operator="out"/>
<feColorMatrix type="matrix" values="0 0 0 0 0.9625 0 0 0 0 0.312813 0 0 0 0 0.425568 0 0 0 0.86 0"/>
<feBlend mode="normal" in2="BackgroundImageFix" result="effect1_dropShadow_19668_86365"/>
<feBlend mode="normal" in="SourceGraphic" in2="effect1_dropShadow_19668_86365" result="shape"/>
</filter>
</defs>
</svg>
